<svg xmlns="http://www.w3.org/2000/svg" width="372" zoomAndPan="magnify" viewBox="0 0 279 73.499998" height="98"
     preserveAspectRatio="xMidYMid meet" version="1.0">
    <defs>
        <g/>
        <clipPath id="7138ba46eb">
            <path d="M 0.953125 0 L 274.332031 0 L 274.332031 72.804688 L 0.953125 72.804688 Z M 0.953125 0 "
                  clip-rule="nonzero"/>
        </clipPath>
        <clipPath id="6c523482fe">
            <path d="M 9.875 6.894531 L 171.730469 6.894531 L 171.730469 66.492188 L 9.875 66.492188 Z M 9.875 6.894531 "
                  clip-rule="nonzero"/>
        </clipPath>
    </defs>
    <g clip-path="url(#7138ba46eb)">
        <path stroke-linecap="butt" transform="matrix(0.744932, 0, 0, 0.744932, 0.951243, 0.000000000000005293)"
              fill="none" stroke-linejoin="miter"
              d="M 0.00252705 -0.000000000000007105 L 366.992658 -0.000000000000007105 L 366.992658 97.73329 L 0.00252705 97.73329 Z M 0.00252705 -0.000000000000007105 "
              stroke="#000000" stroke-width="6" stroke-opacity="1" stroke-miterlimit="4"/>
    </g>
    <g clip-path="url(#6c523482fe)">
        <path fill="#000000"
              d="M 9.875 6.894531 L 171.667969 6.894531 L 171.667969 66.492188 L 9.875 66.492188 Z M 9.875 6.894531 "
              fill-opacity="1" fill-rule="nonzero"/>
    </g>
    <g fill="#ffffff" fill-opacity="1">
        <g transform="translate(17.232738, 45.97961)">
            <g>
                <path d="M 7.03125 0 L 0.546875 -20.015625 L 3.171875 -20.015625 L 5.953125 -11.375 L 8.296875 -4.03125 L 14.21875 -20.015625 L 16.578125 -20.015625 L 22.5 -4 L 27.65625 -20.015625 L 30.28125 -20.015625 L 23.765625 0 L 21.421875 0 L 18.703125 -7.296875 L 15.390625 -16.21875 L 9.375 0 Z M 7.03125 0 "/>
            </g>
        </g>
    </g>
    <g fill="#ffffff" fill-opacity="1">
        <g transform="translate(50.228432, 45.97961)">
            <g>
                <path d="M 16.046875 0 L 16.046875 -9 L 5.4375 -9 L 5.4375 0 L 2.921875 0 L 2.921875 -20.015625 L 5.4375 -20.015625 L 5.4375 -11.40625 L 16.046875 -11.40625 L 16.046875 -20.015625 L 18.5625 -20.015625 L 18.5625 0 Z M 16.046875 0 "/>
            </g>
        </g>
    </g>
    <g fill="#ffffff" fill-opacity="1">
        <g transform="translate(73.874648, 45.97961)">
            <g>
                <path d="M 2.921875 0 L 2.921875 -20.015625 L 5.4375 -20.015625 L 5.4375 0 Z M 2.921875 0 "/>
            </g>
        </g>
    </g>
    <g fill="#ffffff" fill-opacity="1">
        <g transform="translate(84.397271, 45.97961)">
            <g>
                <path d="M 9.578125 0.375 C 7.972656 0.375 6.582031 0.101562 5.40625 -0.4375 C 4.238281 -0.988281 3.335938 -1.753906 2.703125 -2.734375 C 2.066406 -3.710938 1.738281 -4.847656 1.71875 -6.140625 L 4.234375 -6.140625 C 4.273438 -4.867188 4.785156 -3.863281 5.765625 -3.125 C 6.742188 -2.394531 8.015625 -2.03125 9.578125 -2.03125 C 10.984375 -2.03125 12.101562 -2.304688 12.9375 -2.859375 C 13.769531 -3.410156 14.1875 -4.179688 14.1875 -5.171875 C 14.1875 -6.109375 13.785156 -6.859375 12.984375 -7.421875 C 12.179688 -7.984375 10.875 -8.472656 9.0625 -8.890625 C 6.601562 -9.484375 4.800781 -10.238281 3.65625 -11.15625 C 2.507812 -12.082031 1.9375 -13.320312 1.9375 -14.875 C 1.9375 -16.5625 2.578125 -17.898438 3.859375 -18.890625 C 5.148438 -19.890625 6.894531 -20.390625 9.09375 -20.390625 C 11.34375 -20.390625 13.117188 -19.828125 14.421875 -18.703125 C 15.734375 -17.578125 16.394531 -16.039062 16.40625 -14.09375 L 13.921875 -14.09375 C 13.898438 -15.289062 13.457031 -16.238281 12.59375 -16.9375 C 11.726562 -17.632812 10.5625 -17.984375 9.09375 -17.984375 C 7.664062 -17.984375 6.546875 -17.703125 5.734375 -17.140625 C 4.921875 -16.578125 4.515625 -15.820312 4.515625 -14.875 C 4.515625 -14.050781 4.890625 -13.359375 5.640625 -12.796875 C 6.398438 -12.234375 7.75 -11.710938 9.6875 -11.234375 C 12.25 -10.609375 14.070312 -9.820312 15.15625 -8.875 C 16.238281 -7.9375 16.78125 -6.734375 16.78125 -5.265625 C 16.78125 -3.523438 16.128906 -2.148438 14.828125 -1.140625 C 13.523438 -0.128906 11.773438 0.375 9.578125 0.375 Z M 9.578125 0.375 "/>
            </g>
        </g>
    </g>
    <g fill="#ffffff" fill-opacity="1">
        <g transform="translate(105.069951, 45.97961)">
            <g>
                <path d="M 2.921875 0 L 2.921875 -20.015625 L 9.6875 -20.015625 C 11.195312 -20.015625 12.507812 -19.738281 13.625 -19.1875 C 14.738281 -18.632812 15.597656 -17.859375 16.203125 -16.859375 C 16.816406 -15.859375 17.125 -14.671875 17.125 -13.296875 C 17.125 -11.921875 16.816406 -10.734375 16.203125 -9.734375 C 15.597656 -8.734375 14.738281 -7.957031 13.625 -7.40625 C 12.507812 -6.851562 11.195312 -6.578125 9.6875 -6.578125 L 5.4375 -6.578125 L 5.4375 0 Z M 5.4375 -8.921875 L 9.640625 -8.921875 C 12.910156 -8.921875 14.546875 -10.367188 14.546875 -13.265625 C 14.546875 -16.160156 12.910156 -17.609375 9.640625 -17.609375 L 5.4375 -17.609375 Z M 5.4375 -8.921875 "/>
            </g>
        </g>
    </g>
    <g fill="#ffffff" fill-opacity="1">
        <g transform="translate(125.513903, 45.97961)">
            <g>
                <path d="M 2.921875 0 L 2.921875 -20.015625 L 15.0625 -20.015625 L 15.0625 -17.671875 L 5.4375 -17.671875 L 5.4375 -11.359375 L 14.359375 -11.359375 L 14.359375 -9.03125 L 5.4375 -9.03125 L 5.4375 -2.34375 L 15.390625 -2.34375 L 15.390625 0 Z M 2.921875 0 "/>
            </g>
        </g>
    </g>
    <g fill="#ffffff" fill-opacity="1">
        <g transform="translate(144.928542, 45.97961)">
            <g>
                <path d="M 2.921875 0 L 2.921875 -20.015625 L 10.546875 -20.015625 C 11.941406 -20.015625 13.15625 -19.75 14.1875 -19.21875 C 15.21875 -18.695312 16.015625 -17.957031 16.578125 -17 C 17.148438 -16.050781 17.4375 -14.910156 17.4375 -13.578125 C 17.4375 -11.960938 17.015625 -10.625 16.171875 -9.5625 C 15.335938 -8.507812 14.1875 -7.800781 12.71875 -7.4375 L 17.75 0 L 14.71875 0 L 9.84375 -7.171875 L 5.4375 -7.171875 L 5.4375 0 Z M 5.4375 -9.578125 L 10.265625 -9.578125 C 11.734375 -9.578125 12.867188 -9.925781 13.671875 -10.625 C 14.472656 -11.320312 14.875 -12.304688 14.875 -13.578125 C 14.875 -14.859375 14.472656 -15.847656 13.671875 -16.546875 C 12.867188 -17.253906 11.734375 -17.609375 10.265625 -17.609375 L 5.4375 -17.609375 Z M 5.4375 -9.578125 "/>
            </g>
        </g>
    </g>
    <g fill="#000000" fill-opacity="1">
        <g transform="translate(179.23854, 47.02208)">
            <g>
                <path d="M 6.578125 0 L 0.140625 -20.015625 L 6.265625 -20.015625 L 7.65625 -15.5625 L 9.6875 -9.328125 L 11.71875 -15.5625 L 13.203125 -20.015625 L 18.703125 -20.015625 L 22.25 -9.15625 L 24.3125 -15.5625 L 25.703125 -20.015625 L 31.765625 -20.015625 L 25.328125 0 L 19.59375 0 L 15.953125 -11.125 L 12.328125 0 Z M 6.578125 0 "/>
            </g>
        </g>
    </g>
    <g fill="#000000" fill-opacity="1">
        <g transform="translate(211.154752, 47.02208)">
            <g>
                <path d="M 2.109375 0 L 2.109375 -20.015625 L 7.890625 -20.015625 L 7.890625 0 Z M 2.109375 0 "/>
            </g>
        </g>
    </g>
    <g fill="#000000" fill-opacity="1">
        <g transform="translate(221.164323, 47.02208)">
            <g>
                <path d="M 2.109375 0 L 2.109375 -20.015625 L 6.828125 -20.015625 L 14.4375 -9.859375 L 14.4375 -20.015625 L 20.125 -20.015625 L 20.125 0 L 15.4375 0 L 7.828125 -10.203125 L 7.828125 0 Z M 2.109375 0 "/>
            </g>
        </g>
    </g>
    <g fill="#000000" fill-opacity="1">
        <g transform="translate(243.442756, 47.02208)">
            <g>
                <path d="M 9.296875 0.421875 C 6.703125 0.421875 4.671875 -0.191406 3.203125 -1.421875 C 1.734375 -2.648438 1 -4.335938 1 -6.484375 L 6.578125 -6.484375 C 6.578125 -5.722656 6.8125 -5.128906 7.28125 -4.703125 C 7.75 -4.273438 8.390625 -4.0625 9.203125 -4.0625 C 9.910156 -4.0625 10.460938 -4.195312 10.859375 -4.46875 C 11.265625 -4.75 11.46875 -5.140625 11.46875 -5.640625 C 11.46875 -6.742188 10.265625 -7.53125 7.859375 -8 C 3.378906 -8.863281 1.140625 -10.972656 1.140625 -14.328125 C 1.140625 -16.210938 1.820312 -17.703125 3.1875 -18.796875 C 4.550781 -19.890625 6.414062 -20.4375 8.78125 -20.4375 C 10.414062 -20.4375 11.835938 -20.160156 13.046875 -19.609375 C 14.265625 -19.054688 15.203125 -18.269531 15.859375 -17.25 C 16.515625 -16.238281 16.84375 -15.046875 16.84375 -13.671875 L 11.40625 -13.671875 C 11.40625 -14.429688 11.1875 -15.007812 10.75 -15.40625 C 10.3125 -15.8125 9.691406 -16.015625 8.890625 -16.015625 C 8.222656 -16.015625 7.6875 -15.875 7.28125 -15.59375 C 6.882812 -15.320312 6.6875 -14.9375 6.6875 -14.4375 C 6.6875 -13.925781 6.953125 -13.5 7.484375 -13.15625 C 8.023438 -12.8125 8.929688 -12.492188 10.203125 -12.203125 C 12.648438 -11.671875 14.429688 -10.894531 15.546875 -9.875 C 16.660156 -8.851562 17.21875 -7.515625 17.21875 -5.859375 C 17.21875 -3.898438 16.519531 -2.363281 15.125 -1.25 C 13.726562 -0.132812 11.785156 0.421875 9.296875 0.421875 Z M 9.296875 0.421875 "/>
            </g>
        </g>
    </g>
</svg>
