<svg xmlns="http://www.w3.org/2000/svg" width="225" zoomAndPan="magnify" viewBox="0 0 168.75 92.249997" height="123"
     preserveAspectRatio="xMidYMid meet" version="1.0">
    <path fill="#000000"
          d="M 96.035156 21.195312 C 94.757812 20.050781 93.402344 19.054688 91.976562 18.21875 C 90.550781 17.382812 89.066406 16.671875 87.515625 16.085938 C 83.574219 14.648438 79.679688 14.164062 75.824219 14.636719 C 71.972656 15.109375 68.21875 16.339844 64.550781 18.332031 C 60.886719 20.316406 57.367188 22.871094 54 25.996094 C 50.636719 29.125 47.46875 32.632812 44.5 36.515625 C 41.53125 40.394531 38.820312 44.460938 36.363281 48.710938 C 33.90625 52.953125 31.75 57.195312 29.898438 61.441406 C 28.039062 65.683594 26.539062 69.730469 25.390625 73.578125 C 24.914062 75.484375 24.46875 77.398438 24.054688 79.316406 C 23.855469 80.183594 23.65625 81.050781 23.453125 81.925781 C 23.421875 82.078125 23.390625 82.226562 23.359375 82.371094 C 23.296875 82.707031 23.214844 83.027344 23.109375 83.34375 C 23.023438 83.617188 22.875 83.816406 22.652344 83.945312 C 22.441406 84.074219 22.191406 84.113281 21.910156 84.0625 C 21.683594 84.019531 21.535156 83.871094 21.46875 83.617188 C 21.40625 83.265625 21.378906 82.910156 21.386719 82.542969 C 21.394531 81.25 21.355469 79.960938 21.273438 78.675781 C 21.195312 77.398438 21.09375 76.117188 20.964844 74.832031 C 20.941406 74.453125 20.90625 74.066406 20.863281 73.679688 C 20.855469 73.507812 20.84375 73.324219 20.828125 73.132812 C 20.636719 70.917969 20.421875 68.707031 20.179688 66.492188 C 20.054688 65.445312 19.90625 64.410156 19.722656 63.390625 C 19.660156 63.003906 19.597656 62.613281 19.539062 62.214844 C 19.53125 62.203125 19.527344 62.1875 19.527344 62.171875 C 19.496094 61.890625 19.4375 61.621094 19.34375 61.371094 C 19.269531 61.1875 19.207031 60.996094 19.164062 60.789062 C 19.078125 60.511719 18.976562 60.230469 18.855469 59.957031 C 18.730469 59.679688 18.546875 59.441406 18.296875 59.25 C 17.9375 59.351562 17.667969 59.53125 17.484375 59.796875 C 17.308594 60.066406 17.179688 60.363281 17.097656 60.6875 C 17.03125 60.839844 16.957031 60.992188 16.882812 61.144531 C 16.113281 62.792969 15.472656 64.492188 14.964844 66.230469 C 14.570312 67.480469 14.179688 68.722656 13.789062 69.960938 C 13.234375 71.734375 12.6875 73.507812 12.148438 75.277344 C 11.949219 75.863281 11.742188 76.445312 11.53125 77.023438 C 11.429688 77.3125 11.292969 77.574219 11.121094 77.808594 C 10.761719 78.226562 10.367188 78.398438 9.933594 78.324219 C 9.5 78.253906 9.222656 77.953125 9.089844 77.421875 C 8.894531 76.613281 8.777344 75.785156 8.738281 74.933594 C 8.59375 73.371094 8.492188 71.804688 8.429688 70.234375 C 8.398438 69.207031 8.367188 68.183594 8.324219 67.15625 C 8.105469 60.882812 7.828125 54.597656 7.492188 48.300781 C 7.464844 47.773438 7.476562 47.238281 7.527344 46.691406 C 7.558594 46.3125 7.753906 46.027344 8.109375 45.835938 C 8.269531 45.761719 8.429688 45.75 8.589844 45.800781 C 8.746094 45.855469 8.84375 45.972656 8.875 46.15625 C 8.9375 46.566406 8.980469 46.992188 9.011719 47.433594 C 9.277344 50.246094 9.476562 53.136719 9.605469 56.101562 C 9.734375 59.066406 9.832031 62.039062 9.898438 65.011719 C 9.96875 67.574219 10.058594 70.097656 10.164062 72.585938 C 10.167969 72.769531 10.175781 72.957031 10.183594 73.15625 C 10.199219 73.679688 10.21875 74.203125 10.242188 74.730469 C 10.257812 74.792969 10.28125 74.84375 10.320312 74.890625 C 10.367188 74.929688 10.414062 74.953125 10.460938 74.96875 C 10.496094 74.960938 10.542969 74.941406 10.597656 74.902344 C 10.65625 74.863281 10.691406 74.820312 10.710938 74.773438 C 10.894531 74.273438 11.066406 73.761719 11.234375 73.234375 C 11.554688 72.226562 11.867188 71.222656 12.179688 70.222656 C 12.804688 68.210938 13.441406 66.195312 14.097656 64.1875 C 14.53125 62.867188 15.050781 61.582031 15.660156 60.332031 C 15.941406 59.71875 16.300781 59.164062 16.746094 58.667969 C 17.367188 58.039062 18.003906 57.761719 18.648438 57.835938 C 19.300781 57.902344 19.851562 58.335938 20.292969 59.136719 C 20.664062 59.859375 20.929688 60.625 21.089844 61.429688 C 21.324219 62.410156 21.503906 63.410156 21.625 64.429688 C 21.753906 65.441406 21.867188 66.449219 21.957031 67.453125 C 21.972656 67.652344 21.996094 67.84375 22.027344 68.035156 C 22.199219 69.8125 22.359375 71.621094 22.503906 73.453125 C 22.578125 74.273438 22.65625 75.097656 22.734375 75.925781 C 22.9375 75.738281 23.078125 75.558594 23.15625 75.390625 C 23.230469 75.222656 23.273438 75.078125 23.292969 74.957031 C 23.296875 74.890625 23.316406 74.828125 23.347656 74.765625 C 24.308594 70.8125 25.664062 66.683594 27.421875 62.375 C 29.183594 58.0625 31.277344 53.75 33.695312 49.441406 C 36.113281 45.128906 38.796875 40.992188 41.75 37.027344 C 44.699219 33.058594 47.863281 29.441406 51.238281 26.179688 C 54.621094 22.914062 58.144531 20.167969 61.804688 17.957031 C 65.46875 15.742188 69.21875 14.238281 73.050781 13.4375 C 76.890625 12.640625 80.757812 12.726562 84.652344 13.6875 C 88.542969 14.65625 92.402344 16.683594 96.230469 19.769531 C 96.277344 19.816406 96.316406 19.859375 96.355469 19.90625 C 96.722656 20.144531 97.011719 20.460938 97.234375 20.851562 C 97.292969 21 97.285156 21.144531 97.210938 21.285156 C 97.132812 21.421875 97.023438 21.511719 96.878906 21.550781 C 96.710938 21.570312 96.5625 21.550781 96.425781 21.480469 C 96.292969 21.414062 96.164062 21.316406 96.035156 21.195312 Z M 96.035156 21.195312 "
          fill-opacity="1" fill-rule="nonzero"/>
    <path fill="#000000"
          d="M 43.664062 63.445312 C 43.527344 63.613281 43.382812 63.761719 43.242188 63.878906 C 42.753906 64.3125 42.308594 64.664062 41.90625 64.929688 C 41.5 65.199219 41.019531 65.476562 40.457031 65.773438 C 39.628906 66.179688 39.058594 66.210938 38.746094 65.875 C 38.433594 65.542969 38.304688 65.019531 38.359375 64.3125 C 38.441406 63.304688 38.464844 62.574219 38.425781 62.125 C 38.394531 61.667969 38.222656 61.539062 37.914062 61.734375 C 37.601562 61.933594 37.070312 62.492188 36.316406 63.414062 C 35.265625 64.667969 34.417969 66.046875 33.773438 67.554688 C 33.679688 67.753906 33.574219 67.921875 33.441406 68.066406 C 33.304688 68.210938 33.117188 68.304688 32.871094 68.339844 C 32.652344 68.378906 32.480469 68.347656 32.359375 68.25 C 32.230469 68.144531 32.195312 67.980469 32.253906 67.757812 C 32.574219 66.589844 32.910156 65.417969 33.257812 64.257812 C 33.851562 62.226562 34.429688 60.214844 34.992188 58.222656 C 35.417969 56.726562 35.835938 55.230469 36.246094 53.738281 C 36.5 52.847656 36.742188 51.964844 36.976562 51.082031 C 37 51.011719 37.027344 50.9375 37.058594 50.851562 C 37.070312 50.753906 37.09375 50.65625 37.125 50.554688 C 37.164062 50.460938 37.207031 50.351562 37.25 50.238281 C 37.28125 50.132812 37.359375 50.039062 37.492188 49.953125 C 37.621094 49.867188 37.753906 49.808594 37.890625 49.769531 C 38.03125 49.730469 38.148438 49.71875 38.234375 49.734375 C 38.347656 49.804688 38.417969 49.878906 38.449219 49.964844 C 38.476562 50.039062 38.476562 50.128906 38.449219 50.226562 C 38.433594 50.25 38.429688 50.277344 38.4375 50.304688 C 38.347656 50.847656 38.246094 51.363281 38.140625 51.855469 C 37.484375 54.613281 36.726562 57.34375 35.859375 60.058594 C 35.796875 60.242188 35.726562 60.464844 35.644531 60.71875 C 35.507812 61.09375 35.382812 61.457031 35.277344 61.816406 C 35.171875 62.164062 35.152344 62.390625 35.222656 62.488281 C 35.296875 62.578125 35.535156 62.453125 35.941406 62.113281 C 36.054688 61.992188 36.160156 61.871094 36.257812 61.757812 C 36.578125 61.460938 36.890625 61.183594 37.195312 60.914062 C 37.46875 60.664062 37.789062 60.5 38.164062 60.421875 C 39.035156 60.21875 39.601562 60.542969 39.851562 61.394531 C 39.949219 61.730469 39.992188 62.070312 39.976562 62.417969 C 39.96875 62.769531 39.945312 63.117188 39.898438 63.457031 C 39.898438 63.550781 39.898438 63.644531 39.898438 63.742188 C 39.84375 64.34375 39.9375 64.671875 40.183594 64.722656 C 40.433594 64.769531 40.75 64.667969 41.128906 64.414062 C 41.519531 64.164062 41.910156 63.886719 42.304688 63.570312 C 42.570312 63.359375 42.808594 63.183594 43.011719 63.046875 C 43.21875 62.90625 43.378906 62.828125 43.492188 62.820312 C 43.703125 62.820312 43.8125 62.886719 43.8125 63.023438 C 43.8125 63.160156 43.757812 63.304688 43.664062 63.445312 Z M 43.664062 63.445312 "
          fill-opacity="1" fill-rule="nonzero"/>
    <path fill="#000000"
          d="M 48.148438 63.292969 C 47.789062 63.902344 47.339844 64.476562 46.792969 65.023438 C 46.25 65.574219 45.605469 65.988281 44.851562 66.269531 C 44.105469 66.550781 43.5 66.59375 43.027344 66.394531 C 42.546875 66.195312 42.367188 65.613281 42.480469 64.636719 C 42.65625 63.617188 42.96875 62.625 43.425781 61.660156 C 43.535156 61.449219 43.707031 61.285156 43.941406 61.167969 C 44.113281 61.101562 44.28125 61.109375 44.441406 61.191406 C 44.601562 61.277344 44.675781 61.402344 44.667969 61.570312 C 44.59375 61.898438 44.5 62.222656 44.394531 62.550781 C 44.296875 62.878906 44.230469 63.089844 44.203125 63.1875 C 43.980469 63.78125 43.867188 64.382812 43.847656 64.992188 C 43.902344 65.328125 44.351562 65.273438 45.207031 64.832031 C 46.054688 64.390625 46.847656 63.707031 47.578125 62.777344 C 48.308594 61.851562 48.675781 61.554688 48.683594 61.886719 C 48.691406 62.214844 48.515625 62.683594 48.148438 63.292969 Z M 45.273438 59.414062 C 45.230469 59.457031 45.140625 59.515625 45.011719 59.582031 C 44.890625 59.644531 44.753906 59.703125 44.613281 59.753906 C 44.476562 59.800781 44.355469 59.796875 44.257812 59.742188 C 44.167969 59.683594 44.144531 59.546875 44.191406 59.332031 C 44.273438 58.960938 44.363281 58.632812 44.464844 58.339844 C 44.5625 58.042969 44.707031 57.710938 44.898438 57.347656 C 45.027344 57.1875 45.175781 57.089844 45.355469 57.050781 C 45.527344 57.015625 45.683594 57.035156 45.820312 57.121094 C 45.957031 57.195312 46.015625 57.332031 45.992188 57.519531 C 45.90625 58.226562 45.667969 58.859375 45.273438 59.414062 Z M 45.273438 59.414062 "
          fill-opacity="1" fill-rule="nonzero"/>
    <path fill="#000000"
          d="M 54.035156 61.234375 C 52.773438 61.949219 51.871094 62.511719 51.332031 62.921875 C 50.9375 63.203125 50.714844 63.421875 50.671875 63.574219 C 50.628906 63.71875 50.722656 63.960938 50.945312 64.300781 C 50.949219 64.320312 50.96875 64.34375 51 64.371094 C 51.257812 64.796875 51.445312 65.246094 51.558594 65.71875 C 51.769531 66.675781 51.054688 67.492188 49.40625 68.15625 C 47.761719 68.824219 46.621094 69.023438 45.980469 68.75 C 45.34375 68.484375 45.09375 68.054688 45.230469 67.460938 C 45.359375 66.863281 45.84375 66.203125 46.691406 65.476562 C 47.535156 64.746094 48.097656 64.230469 48.378906 63.925781 C 48.652344 63.625 48.695312 63.320312 48.515625 63.023438 C 48.464844 62.933594 48.398438 62.835938 48.320312 62.726562 C 48.179688 62.476562 48.019531 62.226562 47.851562 61.976562 C 47.550781 61.511719 47.375 61.027344 47.328125 60.527344 C 47.277344 60.023438 47.390625 59.578125 47.671875 59.191406 C 47.953125 58.804688 48.441406 58.542969 49.128906 58.40625 C 49.523438 58.332031 49.886719 58.324219 50.214844 58.394531 C 50.546875 58.460938 50.835938 58.644531 51.082031 58.941406 C 51.269531 59.144531 51.253906 59.363281 51.035156 59.589844 C 50.898438 59.75 50.730469 59.800781 50.535156 59.738281 C 50.410156 59.703125 50.285156 59.648438 50.15625 59.578125 C 50.148438 59.550781 50.144531 59.535156 50.144531 59.535156 C 50.089844 59.511719 50.042969 59.484375 49.996094 59.453125 C 49.929688 59.386719 49.859375 59.335938 49.792969 59.292969 C 49.554688 59.179688 49.328125 59.175781 49.109375 59.273438 C 48.898438 59.363281 48.761719 59.5625 48.695312 59.863281 C 48.652344 60.09375 48.648438 60.320312 48.6875 60.550781 C 48.753906 60.832031 48.867188 61.09375 49.015625 61.335938 C 49.109375 61.480469 49.195312 61.617188 49.277344 61.746094 C 49.484375 62.097656 49.644531 62.335938 49.757812 62.464844 C 49.878906 62.589844 50 62.625 50.125 62.578125 C 50.25 62.535156 51.378906 61.914062 53.5 60.710938 C 53.980469 60.457031 54.15625 60.636719 54.035156 61.234375 Z M 49.3125 66.960938 C 49.875 66.65625 50.066406 66.21875 49.882812 65.648438 C 49.875 65.601562 49.855469 65.554688 49.828125 65.5 C 49.742188 65.1875 49.636719 64.957031 49.507812 64.804688 C 49.375 64.652344 49.148438 64.695312 48.824219 64.929688 C 48.03125 65.570312 47.316406 66.285156 46.679688 67.074219 C 46.632812 67.144531 46.59375 67.207031 46.550781 67.269531 C 46.550781 67.269531 46.550781 67.28125 46.542969 67.300781 C 46.503906 67.378906 46.507812 67.460938 46.550781 67.542969 C 46.597656 67.628906 46.683594 67.65625 46.804688 67.632812 C 47.703125 67.628906 48.539062 67.402344 49.3125 66.960938 Z M 49.3125 66.960938 "
          fill-opacity="1" fill-rule="nonzero"/>
    <path fill="#000000"
          d="M 63.546875 59.445312 C 63.378906 59.550781 63.199219 59.648438 63 59.730469 C 62.957031 59.769531 62.910156 59.796875 62.863281 59.820312 C 62.683594 59.929688 62.492188 60.03125 62.292969 60.128906 C 61.75 60.417969 61.199219 60.710938 60.628906 61.007812 C 60.199219 61.210938 59.898438 61.546875 59.714844 62.011719 C 59.417969 62.75 58.984375 63.355469 58.414062 63.835938 C 57.851562 64.308594 57.261719 64.675781 56.648438 64.929688 C 56.03125 65.191406 55.476562 65.382812 54.992188 65.5 C 54.515625 65.617188 54.195312 65.671875 54.035156 65.671875 C 54.019531 65.679688 54 65.683594 53.976562 65.683594 C 53.804688 65.851562 53.644531 66.136719 53.5 66.539062 C 53.355469 66.945312 53.230469 67.308594 53.121094 67.632812 C 53.109375 67.710938 53.097656 67.78125 53.089844 67.851562 C 52.519531 69.652344 51.964844 71.457031 51.421875 73.257812 C 51.097656 74.269531 50.777344 75.277344 50.464844 76.28125 C 50.367188 76.636719 50.246094 76.980469 50.097656 77.308594 C 49.949219 77.582031 49.722656 77.667969 49.425781 77.570312 C 49.222656 77.460938 49.148438 77.285156 49.199219 77.035156 C 49.253906 76.765625 49.308594 76.503906 49.371094 76.246094 C 50.269531 72.574219 51.261719 68.921875 52.347656 65.296875 C 52.683594 64.179688 52.984375 63.046875 53.257812 61.898438 C 53.382812 61.359375 53.511719 60.8125 53.648438 60.265625 C 53.65625 60.207031 53.679688 60.140625 53.714844 60.070312 C 53.777344 59.773438 53.859375 59.488281 53.964844 59.203125 C 54.019531 59.097656 54.136719 59.019531 54.320312 58.964844 C 54.496094 58.90625 54.65625 58.90625 54.8125 58.964844 C 55 59.050781 55.113281 59.199219 55.152344 59.410156 C 55.167969 59.519531 55.164062 59.636719 55.140625 59.761719 C 55.125 59.871094 55.117188 59.96875 55.117188 60.058594 C 55.125 60.144531 55.171875 60.230469 55.253906 60.324219 C 55.390625 60.316406 55.507812 60.273438 55.597656 60.195312 C 55.6875 60.121094 55.773438 60.039062 55.859375 59.945312 C 55.933594 59.863281 56.035156 59.796875 56.167969 59.753906 C 56.238281 59.691406 56.300781 59.636719 56.363281 59.582031 C 56.742188 59.339844 57.117188 59.113281 57.492188 58.90625 C 57.984375 58.664062 58.5 58.621094 59.042969 58.769531 C 59.292969 58.878906 59.488281 59.019531 59.625 59.191406 C 59.765625 59.371094 59.886719 59.5625 59.976562 59.773438 C 60.0625 59.929688 60.230469 59.992188 60.480469 59.96875 C 60.738281 59.941406 61.011719 59.863281 61.300781 59.742188 C 61.597656 59.613281 61.867188 59.488281 62.109375 59.363281 C 62.316406 59.273438 62.457031 59.214844 62.535156 59.183594 C 62.785156 59.074219 63.046875 59.019531 63.320312 59.011719 C 63.390625 58.996094 63.457031 58.996094 63.527344 59.011719 C 63.59375 59.019531 63.632812 59.078125 63.652344 59.191406 C 63.65625 59.238281 63.652344 59.289062 63.628906 59.339844 C 63.613281 59.394531 63.585938 59.429688 63.546875 59.445312 Z M 58.371094 61.15625 C 58.519531 61.019531 58.59375 60.820312 58.585938 60.5625 C 58.585938 60.296875 58.519531 60.054688 58.382812 59.832031 C 58.328125 59.761719 58.261719 59.722656 58.1875 59.707031 C 58.117188 59.683594 58.042969 59.679688 57.960938 59.695312 C 57.8125 59.742188 57.675781 59.808594 57.535156 59.898438 C 56.105469 60.945312 55.03125 62.261719 54.308594 63.859375 C 54.171875 64.230469 54.21875 64.378906 54.445312 64.304688 C 54.664062 64.230469 54.988281 64.03125 55.414062 63.710938 C 55.839844 63.386719 56.273438 63.019531 56.714844 62.617188 C 57.164062 62.203125 57.546875 61.855469 57.867188 61.566406 C 58.15625 61.316406 58.324219 61.179688 58.371094 61.15625 Z M 58.371094 61.15625 "
          fill-opacity="1" fill-rule="nonzero"/>
    <path fill="#000000"
          d="M 70.316406 60.1875 C 69.90625 60.75 69.40625 61.253906 68.8125 61.703125 C 68.21875 62.144531 67.707031 62.453125 67.285156 62.628906 C 66.855469 62.804688 66.417969 62.941406 65.960938 63.039062 C 65.214844 63.191406 64.511719 63.203125 63.851562 63.074219 C 62.753906 62.816406 62.273438 62.078125 62.402344 60.859375 C 62.53125 59.808594 63.003906 58.929688 63.816406 58.222656 C 64.628906 57.515625 65.519531 57.09375 66.484375 56.945312 C 66.484375 56.945312 66.492188 56.945312 66.507812 56.945312 C 66.75 56.886719 66.988281 56.863281 67.226562 56.878906 C 67.613281 56.957031 67.882812 57.136719 68.035156 57.425781 C 68.1875 57.707031 68.175781 58.054688 68.003906 58.464844 C 67.589844 59.375 66.929688 59.953125 66.015625 60.1875 C 65.40625 60.347656 64.808594 60.410156 64.214844 60.378906 C 64.105469 60.390625 64.015625 60.4375 63.941406 60.527344 C 63.867188 60.613281 63.828125 60.714844 63.828125 60.835938 C 63.777344 61.589844 64.070312 62.015625 64.726562 62.113281 C 65.53125 62.257812 66.324219 62.132812 67.101562 61.726562 C 67.996094 61.277344 68.804688 60.578125 69.519531 59.628906 C 70.242188 58.667969 70.671875 58.210938 70.808594 58.246094 C 70.949219 58.277344 71.019531 58.425781 71.011719 58.691406 C 70.960938 59.125 70.726562 59.625 70.316406 60.1875 Z M 64.589844 59.023438 C 64.546875 59.089844 64.515625 59.164062 64.511719 59.238281 C 64.503906 59.316406 64.539062 59.375 64.625 59.410156 C 64.945312 59.535156 65.269531 59.542969 65.605469 59.445312 C 65.949219 59.339844 66.222656 59.160156 66.429688 58.910156 C 66.640625 58.652344 66.703125 58.371094 66.609375 58.074219 C 66.570312 57.960938 66.5 57.898438 66.40625 57.882812 C 66.304688 57.867188 66.214844 57.878906 66.132812 57.917969 C 65.515625 58.128906 65 58.5 64.589844 59.023438 Z M 64.589844 59.023438 "
          fill-opacity="1" fill-rule="nonzero"/>
    <path fill="#000000"
          d="M 76.070312 56.261719 C 76.09375 56.855469 75.878906 57.277344 75.429688 57.527344 C 74.988281 57.78125 74.796875 57.574219 74.859375 56.914062 C 74.921875 56.246094 74.605469 56.125 73.914062 56.558594 C 73.222656 56.992188 72.675781 57.496094 72.28125 58.066406 C 71.660156 58.941406 71.128906 59.863281 70.699219 60.835938 C 70.644531 60.929688 70.605469 61.003906 70.582031 61.054688 C 70.453125 61.320312 70.328125 61.585938 70.195312 61.839844 C 70.113281 62.007812 70 62.121094 69.851562 62.183594 C 69.710938 62.238281 69.5625 62.269531 69.410156 62.273438 C 69.257812 62.273438 69.132812 62.238281 69.042969 62.160156 C 68.953125 62.085938 68.929688 61.976562 68.976562 61.839844 C 69.027344 61.589844 69.101562 61.339844 69.191406 61.085938 C 69.714844 59.554688 70.257812 58.011719 70.8125 56.46875 C 70.828125 56.453125 70.832031 56.433594 70.824219 56.410156 C 70.910156 56.167969 71.003906 55.941406 71.121094 55.726562 C 71.261719 55.519531 71.445312 55.417969 71.667969 55.417969 C 71.886719 55.417969 72.054688 55.519531 72.167969 55.726562 C 72.3125 56.007812 72.421875 56.164062 72.5 56.195312 C 72.574219 56.226562 72.71875 56.171875 72.933594 56.035156 C 73.417969 55.761719 73.894531 55.550781 74.359375 55.394531 C 74.828125 55.246094 75.230469 55.203125 75.558594 55.269531 C 75.882812 55.339844 76.054688 55.667969 76.070312 56.261719 Z M 76.070312 56.261719 "
          fill-opacity="1" fill-rule="nonzero"/>
    <path fill="#000000"
          d="M 163.464844 10.242188 C 162.1875 9.097656 160.832031 8.105469 159.402344 7.265625 C 157.980469 6.429688 156.492188 5.71875 154.941406 5.132812 C 151 3.695312 147.105469 3.214844 143.25 3.683594 C 139.398438 4.15625 135.644531 5.390625 131.980469 7.378906 C 128.3125 9.367188 124.796875 11.921875 121.429688 15.046875 C 118.066406 18.171875 114.898438 21.679688 111.925781 25.5625 C 108.960938 29.441406 106.246094 33.507812 103.792969 37.757812 C 101.335938 42 99.179688 46.246094 97.324219 50.488281 C 95.46875 54.730469 93.964844 58.777344 92.820312 62.625 C 92.339844 64.535156 91.894531 66.445312 91.484375 68.363281 C 91.285156 69.230469 91.085938 70.101562 90.878906 70.976562 C 90.847656 71.128906 90.816406 71.273438 90.789062 71.421875 C 90.726562 71.753906 90.644531 72.078125 90.535156 72.390625 C 90.453125 72.664062 90.300781 72.863281 90.082031 72.996094 C 89.867188 73.125 89.617188 73.160156 89.339844 73.109375 C 89.109375 73.070312 88.964844 72.921875 88.894531 72.664062 C 88.832031 72.3125 88.804688 71.957031 88.816406 71.59375 C 88.820312 70.296875 88.785156 69.007812 88.699219 67.726562 C 88.625 66.445312 88.519531 65.164062 88.390625 63.878906 C 88.371094 63.5 88.335938 63.117188 88.289062 62.726562 C 88.28125 62.554688 88.269531 62.371094 88.253906 62.179688 C 88.066406 59.96875 87.847656 57.753906 87.605469 55.542969 C 87.484375 54.492188 87.332031 53.460938 87.148438 52.4375 C 87.085938 52.050781 87.027344 51.660156 86.964844 51.265625 C 86.957031 51.25 86.957031 51.234375 86.957031 51.21875 C 86.925781 50.9375 86.863281 50.671875 86.773438 50.421875 C 86.695312 50.238281 86.636719 50.042969 86.589844 49.839844 C 86.503906 49.558594 86.402344 49.277344 86.28125 49.003906 C 86.160156 48.726562 85.972656 48.488281 85.722656 48.296875 C 85.363281 48.398438 85.097656 48.582031 84.914062 48.847656 C 84.738281 49.113281 84.609375 49.410156 84.527344 49.734375 C 84.457031 49.890625 84.382812 50.039062 84.308594 50.191406 C 83.539062 51.84375 82.898438 53.539062 82.390625 55.28125 C 81.996094 56.527344 81.605469 57.773438 81.21875 59.007812 C 80.660156 60.785156 80.113281 62.554688 79.574219 64.324219 C 79.375 64.910156 79.167969 65.492188 78.957031 66.070312 C 78.859375 66.359375 78.722656 66.621094 78.546875 66.859375 C 78.1875 67.273438 77.796875 67.445312 77.363281 67.371094 C 76.929688 67.300781 76.648438 67 76.515625 66.46875 C 76.320312 65.664062 76.203125 64.832031 76.164062 63.984375 C 76.019531 62.417969 75.917969 60.851562 75.855469 59.285156 C 75.828125 58.257812 75.792969 57.230469 75.753906 56.203125 C 75.535156 49.929688 75.257812 43.644531 74.921875 37.347656 C 74.890625 36.824219 74.902344 36.285156 74.953125 35.738281 C 74.984375 35.359375 75.179688 35.074219 75.535156 34.882812 C 75.695312 34.808594 75.855469 34.796875 76.015625 34.847656 C 76.175781 34.902344 76.273438 35.019531 76.300781 35.203125 C 76.363281 35.613281 76.410156 36.042969 76.4375 36.480469 C 76.707031 39.296875 76.902344 42.183594 77.03125 45.148438 C 77.160156 48.117188 77.257812 51.085938 77.328125 54.058594 C 77.394531 56.621094 77.484375 59.148438 77.589844 61.632812 C 77.59375 61.816406 77.605469 62.007812 77.613281 62.203125 C 77.625 62.726562 77.648438 63.253906 77.667969 63.777344 C 77.683594 63.839844 77.710938 63.890625 77.75 63.9375 C 77.796875 63.976562 77.839844 64 77.886719 64.015625 C 77.921875 64.007812 77.96875 63.988281 78.023438 63.949219 C 78.082031 63.910156 78.121094 63.867188 78.136719 63.824219 C 78.320312 63.320312 78.492188 62.808594 78.664062 62.285156 C 78.980469 61.273438 79.296875 60.269531 79.609375 59.273438 C 80.230469 57.257812 80.871094 55.246094 81.523438 53.238281 C 81.957031 51.914062 82.476562 50.632812 83.089844 49.382812 C 83.367188 48.765625 83.730469 48.210938 84.171875 47.714844 C 84.792969 47.085938 85.429688 46.808594 86.078125 46.882812 C 86.730469 46.953125 87.277344 47.386719 87.71875 48.183594 C 88.089844 48.910156 88.359375 49.671875 88.519531 50.476562 C 88.75 51.457031 88.929688 52.460938 89.054688 53.476562 C 89.183594 54.488281 89.292969 55.496094 89.386719 56.5 C 89.398438 56.699219 89.421875 56.894531 89.453125 57.082031 C 89.628906 58.863281 89.785156 60.667969 89.933594 62.5 C 90.007812 63.320312 90.082031 64.144531 90.160156 64.976562 C 90.367188 64.785156 90.503906 64.605469 90.582031 64.441406 C 90.65625 64.269531 90.703125 64.125 90.71875 64.007812 C 90.726562 63.9375 90.746094 63.875 90.777344 63.8125 C 91.734375 59.859375 93.09375 55.730469 94.847656 51.421875 C 96.613281 47.113281 98.703125 42.800781 101.121094 38.488281 C 103.542969 34.175781 106.226562 30.039062 109.175781 26.078125 C 112.125 22.105469 115.289062 18.492188 118.667969 15.230469 C 122.050781 11.960938 125.570312 9.21875 129.230469 7.003906 C 132.894531 4.789062 136.644531 3.285156 140.476562 2.488281 C 144.316406 1.6875 148.183594 1.773438 152.078125 2.738281 C 155.972656 3.703125 159.832031 5.730469 163.65625 8.816406 C 163.703125 8.863281 163.742188 8.910156 163.78125 8.953125 C 164.148438 9.191406 164.4375 9.507812 164.660156 9.902344 C 164.722656 10.046875 164.710938 10.191406 164.636719 10.335938 C 164.5625 10.472656 164.449219 10.558594 164.308594 10.597656 C 164.140625 10.621094 163.988281 10.597656 163.851562 10.527344 C 163.71875 10.460938 163.59375 10.367188 163.464844 10.242188 Z M 163.464844 10.242188 "
          fill-opacity="1" fill-rule="nonzero"/>
    <path fill="#000000"
          d="M 105.910156 53.910156 C 105.550781 54.519531 105.101562 55.09375 104.554688 55.644531 C 104.011719 56.191406 103.367188 56.605469 102.613281 56.886719 C 101.867188 57.167969 101.261719 57.210938 100.789062 57.011719 C 100.308594 56.816406 100.128906 56.230469 100.242188 55.253906 C 100.417969 54.238281 100.730469 53.246094 101.1875 52.277344 C 101.296875 52.066406 101.46875 51.902344 101.703125 51.789062 C 101.875 51.71875 102.042969 51.726562 102.203125 51.808594 C 102.363281 51.894531 102.4375 52.019531 102.433594 52.1875 C 102.355469 52.515625 102.261719 52.84375 102.15625 53.167969 C 102.058594 53.496094 101.992188 53.710938 101.964844 53.804688 C 101.746094 54.398438 101.628906 55 101.609375 55.609375 C 101.664062 55.945312 102.117188 55.890625 102.96875 55.449219 C 103.816406 55.011719 104.609375 54.324219 105.339844 53.394531 C 106.070312 52.46875 106.4375 52.171875 106.445312 52.507812 C 106.453125 52.832031 106.277344 53.300781 105.910156 53.910156 Z M 103.035156 50.03125 C 102.992188 50.078125 102.902344 50.132812 102.773438 50.203125 C 102.652344 50.265625 102.515625 50.320312 102.375 50.371094 C 102.238281 50.417969 102.117188 50.414062 102.019531 50.363281 C 101.929688 50.300781 101.90625 50.164062 101.953125 49.949219 C 102.035156 49.578125 102.125 49.25 102.226562 48.957031 C 102.324219 48.660156 102.46875 48.332031 102.660156 47.964844 C 102.789062 47.804688 102.9375 47.710938 103.117188 47.667969 C 103.289062 47.632812 103.445312 47.65625 103.582031 47.738281 C 103.722656 47.816406 103.777344 47.949219 103.753906 48.136719 C 103.667969 48.84375 103.429688 49.476562 103.035156 50.03125 Z M 103.035156 50.03125 "
          fill-opacity="1" fill-rule="nonzero"/>
    <path fill="#000000"
          d="M 115.699219 51.316406 C 115.863281 51.460938 115.746094 51.792969 115.34375 52.320312 C 114.949219 52.839844 114.507812 53.292969 114.023438 53.6875 C 113.542969 54.078125 112.976562 54.484375 112.324219 54.910156 C 111.894531 55.191406 111.414062 55.339844 110.886719 55.355469 C 110.351562 55.371094 110.035156 55.097656 109.9375 54.53125 C 109.847656 53.960938 109.882812 53.378906 110.050781 52.789062 C 110.21875 52.164062 110.226562 51.859375 110.074219 51.875 C 109.929688 51.882812 109.648438 52.070312 109.230469 52.433594 C 108.152344 53.421875 107.179688 54.507812 106.3125 55.695312 C 106.082031 56.078125 105.757812 56.324219 105.332031 56.4375 C 105.109375 56.46875 104.929688 56.425781 104.78125 56.3125 C 104.640625 56.191406 104.601562 56.042969 104.667969 55.867188 C 105.1875 54.378906 105.714844 52.894531 106.253906 51.417969 C 106.386719 51.117188 106.613281 50.902344 106.9375 50.78125 C 107.074219 50.734375 107.210938 50.757812 107.347656 50.847656 C 107.492188 50.9375 107.578125 51.058594 107.601562 51.203125 C 107.605469 51.347656 107.582031 51.519531 107.519531 51.714844 C 107.488281 51.828125 107.464844 51.941406 107.441406 52.046875 C 107.421875 52.152344 107.429688 52.238281 107.453125 52.308594 C 107.476562 52.375 107.53125 52.394531 107.621094 52.355469 C 107.738281 52.261719 107.84375 52.167969 107.953125 52.070312 C 108.25 51.828125 108.53125 51.59375 108.796875 51.371094 C 109.03125 51.191406 109.28125 51.015625 109.550781 50.847656 C 109.824219 50.683594 110.113281 50.550781 110.417969 50.460938 C 110.917969 50.347656 111.296875 50.402344 111.546875 50.632812 C 111.804688 50.855469 111.890625 51.210938 111.808594 51.703125 C 111.699219 52.152344 111.59375 52.601562 111.480469 53.050781 C 111.308594 53.46875 111.320312 53.769531 111.5 53.949219 C 111.683594 54.128906 112.347656 53.777344 113.496094 52.902344 L 114.363281 52.207031 C 115.167969 51.484375 115.613281 51.1875 115.699219 51.316406 Z M 115.699219 51.316406 "
          fill-opacity="1" fill-rule="nonzero"/>
    <path fill="#000000"
          d="M 121.082031 50.34375 C 119.820312 51.058594 118.917969 51.621094 118.378906 52.03125 C 117.984375 52.3125 117.761719 52.53125 117.71875 52.683594 C 117.679688 52.828125 117.769531 53.070312 117.992188 53.414062 C 117.996094 53.429688 118.015625 53.453125 118.046875 53.480469 C 118.304688 53.910156 118.492188 54.355469 118.609375 54.828125 C 118.820312 55.785156 118.101562 56.601562 116.453125 57.269531 C 114.808594 57.933594 113.667969 58.136719 113.03125 57.859375 C 112.390625 57.597656 112.140625 57.164062 112.277344 56.570312 C 112.40625 55.972656 112.894531 55.3125 113.738281 54.585938 C 114.582031 53.855469 115.144531 53.339844 115.425781 53.035156 C 115.699219 52.734375 115.746094 52.429688 115.5625 52.132812 C 115.511719 52.042969 115.445312 51.945312 115.367188 51.839844 C 115.226562 51.585938 115.070312 51.335938 114.898438 51.085938 C 114.597656 50.625 114.421875 50.136719 114.375 49.636719 C 114.324219 49.132812 114.4375 48.691406 114.71875 48.300781 C 115 47.914062 115.488281 47.652344 116.179688 47.515625 C 116.570312 47.441406 116.933594 47.433594 117.261719 47.503906 C 117.59375 47.570312 117.882812 47.753906 118.128906 48.050781 C 118.316406 48.257812 118.300781 48.472656 118.082031 48.699219 C 117.945312 48.859375 117.777344 48.914062 117.582031 48.847656 C 117.457031 48.8125 117.332031 48.757812 117.203125 48.691406 C 117.195312 48.660156 117.191406 48.644531 117.191406 48.644531 C 117.140625 48.621094 117.089844 48.59375 117.042969 48.5625 C 116.976562 48.496094 116.90625 48.445312 116.839844 48.40625 C 116.601562 48.289062 116.375 48.285156 116.15625 48.382812 C 115.945312 48.472656 115.808594 48.671875 115.746094 48.976562 C 115.699219 49.203125 115.695312 49.429688 115.734375 49.660156 C 115.800781 49.941406 115.914062 50.203125 116.0625 50.445312 C 116.15625 50.59375 116.242188 50.730469 116.328125 50.855469 C 116.53125 51.207031 116.691406 51.449219 116.804688 51.574219 C 116.925781 51.699219 117.046875 51.734375 117.171875 51.691406 C 117.296875 51.644531 118.425781 51.023438 120.546875 49.820312 C 121.027344 49.566406 121.203125 49.746094 121.082031 50.34375 Z M 116.359375 56.070312 C 116.921875 55.769531 117.113281 55.328125 116.929688 54.757812 C 116.921875 54.710938 116.902344 54.664062 116.875 54.609375 C 116.789062 54.300781 116.683594 54.066406 116.554688 53.914062 C 116.421875 53.761719 116.195312 53.804688 115.871094 54.039062 C 115.078125 54.679688 114.363281 55.394531 113.726562 56.183594 C 113.679688 56.253906 113.640625 56.316406 113.601562 56.378906 C 113.601562 56.378906 113.597656 56.390625 113.589844 56.414062 C 113.550781 56.488281 113.554688 56.570312 113.601562 56.652344 C 113.644531 56.738281 113.730469 56.765625 113.851562 56.742188 C 114.75 56.738281 115.585938 56.511719 116.359375 56.070312 Z M 116.359375 56.070312 "
          fill-opacity="1" fill-rule="nonzero"/>
</svg>
